<svg width="44" height="41" viewBox="0 0 44 41" fill="none" xmlns="http://www.w3.org/2000/svg">
<path d="M6.80982 40.2233C6.82594 40.2237 6.8418 40.2268 6.85649 40.2325C6.87118 40.2381 6.88441 40.2462 6.89539 40.2563L7.11622 40.4639C6.94481 40.6319 6.73295 40.7663 6.49514 40.8578C6.21665 40.9577 5.91652 41.0059 5.61459 40.9993C5.33087 41.0043 5.04899 40.9594 4.78649 40.8672C4.5497 40.7826 4.33695 40.6555 4.16265 40.4946C3.98476 40.3276 3.84773 40.1319 3.75964 39.919C3.66316 39.6817 3.61553 39.4319 3.61886 39.1807C3.61494 38.9279 3.66644 38.6767 3.77068 38.44C3.86711 38.2258 4.01256 38.0301 4.19853 37.8645C4.38702 37.7021 4.6125 37.5744 4.86102 37.4894C5.13289 37.3994 5.4224 37.3545 5.71396 37.3574C5.9848 37.3517 6.2542 37.3926 6.50618 37.4777C6.72481 37.5587 6.92554 37.6712 7.09966 37.8102L6.91471 38.032C6.90194 38.0476 6.88606 38.0612 6.86779 38.0721C6.84597 38.0848 6.8196 38.0907 6.79326 38.0886C6.76461 38.0869 6.73699 38.0787 6.71321 38.065L6.61384 38.006L6.47582 37.9305C6.41624 37.9025 6.35444 37.8781 6.29088 37.8574C6.209 37.8324 6.12503 37.8127 6.03968 37.7984C5.93136 37.7814 5.82134 37.7735 5.7112 37.7749C5.50125 37.7726 5.29289 37.8063 5.09841 37.8739C4.91703 37.9366 4.75331 38.0315 4.61811 38.1523C4.48046 38.2808 4.3744 38.4316 4.30619 38.5957C4.22844 38.7835 4.19013 38.9815 4.19301 39.1807C4.1897 39.383 4.228 39.5842 4.30619 39.7751C4.37354 39.9379 4.47765 40.0877 4.61258 40.2162C4.73901 40.336 4.89572 40.4296 5.0708 40.4898C5.25098 40.5537 5.44439 40.5858 5.63943 40.5842C5.7521 40.5857 5.86472 40.5794 5.9762 40.5653C6.15822 40.5463 6.33282 40.4923 6.48686 40.4073C6.56412 40.3637 6.63706 40.3148 6.70493 40.261C6.7333 40.2379 6.77063 40.2245 6.80982 40.2233Z" fill="#8E8F99"/>
<path d="M13.1862 39.1803C13.1896 39.4305 13.1391 39.6792 13.0371 39.9138C12.9472 40.1266 12.8055 40.3207 12.6213 40.4834C12.4372 40.646 12.2148 40.7734 11.9689 40.8573C11.4285 41.0334 10.8311 41.0334 10.2906 40.8573C10.0462 40.7721 9.82532 40.6444 9.64194 40.4822C9.45793 40.3167 9.31519 40.1209 9.22238 39.9067C9.02353 39.4317 9.02353 38.9124 9.22238 38.4373C9.31654 38.2231 9.4591 38.0267 9.64194 37.8595C9.82688 37.7024 10.0477 37.5796 10.2906 37.4986C10.8304 37.3193 11.4291 37.3193 11.9689 37.4986C12.2141 37.5837 12.4359 37.7114 12.6203 37.8736C12.802 38.0376 12.9437 38.2308 13.0371 38.442C13.1394 38.6782 13.1899 38.9285 13.1862 39.1803ZM12.6065 39.1803C12.6109 38.9801 12.5754 38.7807 12.5016 38.5906C12.4398 38.4278 12.3392 38.2777 12.2063 38.1496C12.0769 38.0284 11.9175 37.9333 11.7398 37.8713C11.3471 37.7423 10.9124 37.7423 10.5197 37.8713C10.342 37.9333 10.1827 38.0284 10.0532 38.1496C9.91843 38.2769 9.81682 38.4272 9.75512 38.5906C9.61467 38.9746 9.61467 39.386 9.75512 39.7699C9.81742 39.9331 9.91897 40.0833 10.0532 40.211C10.1828 40.3315 10.3422 40.4257 10.5197 40.487C10.9131 40.6126 11.3464 40.6126 11.7398 40.487C11.9173 40.4257 12.0767 40.3315 12.2063 40.211C12.3386 40.0826 12.4391 39.9325 12.5016 39.7699C12.5757 39.5799 12.6112 39.3805 12.6065 39.1803Z" fill="#8E8F99"/>
<path d="M17.5365 39.7987L17.5945 39.9308C17.6166 39.8836 17.6359 39.8411 17.658 39.7987C17.679 39.7543 17.703 39.711 17.7297 39.669L19.1403 37.4781C19.1679 37.4404 19.1927 37.4168 19.2203 37.4097C19.2579 37.3999 19.2971 37.396 19.3363 37.3979H19.7531V40.9613H19.259V38.3412C19.259 38.3082 19.259 38.2705 19.259 38.2304C19.2563 38.1896 19.2563 38.1486 19.259 38.1078L17.8402 40.3293C17.8221 40.3626 17.7933 40.3907 17.7571 40.4104C17.7209 40.43 17.6788 40.4404 17.6359 40.4402H17.5558C17.5129 40.4407 17.4706 40.4305 17.4344 40.4108C17.3981 40.3911 17.3693 40.3628 17.3516 40.3293L15.8914 38.0936C15.8914 38.1361 15.8914 38.1785 15.8914 38.221C15.8914 38.2634 15.8914 38.3012 15.8914 38.3342V40.9543H15.4138V37.3979H15.8306C15.8698 37.396 15.909 37.3999 15.9466 37.4097C15.9808 37.4242 16.0081 37.4484 16.0239 37.4781L17.4648 39.6713C17.4931 39.7119 17.5171 39.7545 17.5365 39.7987Z" fill="#8E8F99"/>
<path d="M22.8445 39.6216V40.9564H22.2925V37.3978H23.5236C23.756 37.394 23.9877 37.4202 24.2109 37.4756C24.3896 37.5189 24.5553 37.5945 24.6967 37.6973C24.8194 37.7937 24.9139 37.9132 24.9728 38.0463C25.0379 38.1915 25.0698 38.346 25.0666 38.5015C25.0691 38.6575 25.0343 38.8124 24.9645 38.9566C24.8981 39.0931 24.7962 39.2149 24.6664 39.3127C24.5247 39.4198 24.3583 39.5002 24.1778 39.5485C23.9629 39.6072 23.7381 39.6351 23.5126 39.6311L22.8445 39.6216ZM22.8445 39.2396H23.5126C23.6577 39.2412 23.8021 39.2229 23.9404 39.1854C24.0545 39.1526 24.1596 39.1004 24.2496 39.0321C24.3325 38.9668 24.3967 38.8861 24.4373 38.7962C24.4825 38.7012 24.505 38.5993 24.5035 38.4967C24.5099 38.3978 24.491 38.2989 24.4481 38.2068C24.4052 38.1148 24.3394 38.0318 24.2551 37.9638C24.0442 37.8231 23.7793 37.755 23.5126 37.7728H22.8445V39.2396Z" fill="#8E8F99"/>
<path d="M30.2646 40.9612H29.8285C29.7847 40.9627 29.7418 40.951 29.707 40.9282C29.6757 40.906 29.6511 40.8777 29.6352 40.8457L29.2598 39.9848H27.3745L26.9853 40.8457C26.971 40.8771 26.9472 40.9048 26.9163 40.9258C26.8812 40.95 26.8371 40.9626 26.7921 40.9612H26.356L28.0122 37.3974H28.5863L30.2646 40.9612ZM27.5319 39.6381H29.0887L28.4317 38.1875C28.3815 38.0784 28.34 37.9665 28.3075 37.8526L28.244 38.039C28.2247 38.0956 28.2026 38.1475 28.1833 38.1899L27.5319 39.6381Z" fill="#8E8F99"/>
<path d="M32.6495 37.414C32.6825 37.4295 32.7109 37.4513 32.7323 37.4777L35.1476 40.1641C35.1476 40.1216 35.1476 40.0792 35.1476 40.0391C35.1476 39.999 35.1476 39.9589 35.1476 39.9211V37.3975H35.6417V40.9612H35.3657C35.3265 40.9623 35.2876 40.955 35.2525 40.94C35.2184 40.923 35.1884 40.9006 35.1642 40.874L32.7517 38.19C32.7543 38.2308 32.7543 38.2718 32.7517 38.3126C32.7517 38.3527 32.7517 38.3881 32.7517 38.4211V40.9612H32.2576V37.3975H32.5502C32.5843 37.3967 32.6182 37.4023 32.6495 37.414Z" fill="#8E8F99"/>
<path d="M39.7104 39.5438V40.9589H39.1583V39.5438L37.6318 37.3975H38.1259C38.1685 37.3954 38.2106 37.4062 38.2446 37.4282C38.2747 37.4511 38.2999 37.4782 38.3192 37.5084L39.2743 38.8928C39.3129 38.9518 39.346 39.006 39.3736 39.0579C39.4012 39.1098 39.4233 39.1593 39.4426 39.2089L39.5144 39.0556C39.5412 38.9995 39.5726 38.9451 39.6083 38.8928L40.5495 37.4989C40.5693 37.4711 40.5935 37.4457 40.6213 37.4235C40.6541 37.399 40.6966 37.3864 40.74 37.3881H41.2396L39.7104 39.5438Z" fill="#8E8F99"/>
<path d="M17.2632 31.417C17.5033 31.4429 17.7462 31.4642 17.9919 31.483C21.7165 30.0595 24.8673 27.7295 27.0506 24.7844C29.2338 21.8393 30.3527 18.4097 30.2672 14.9243L26.1626 11.4172C26.9972 15.1281 26.6068 18.9642 25.0351 22.4963C23.4634 26.0284 20.7724 29.1171 17.2632 31.417Z" fill="#8E8F99"/>
<path d="M15.7974 31.2539L15.9078 31.2727C19.6577 28.981 22.5167 25.7809 24.115 22.086C25.7133 18.3912 25.9775 14.3717 24.8734 10.5472L19.027 5.55209C21.3917 9.65794 22.3435 14.253 21.7718 18.8029C21.2001 23.3527 19.1283 27.6704 15.7974 31.2539Z" fill="#8E8F99"/>
<path d="M35.6251 19.0424C34.6318 22.8721 32.2195 26.3259 28.7463 28.8912C27.7319 29.6445 26.6378 30.3156 25.478 30.8958C28.3062 30.1856 30.9057 28.9299 33.0761 27.2256C35.2465 25.5213 36.9298 23.4139 37.9962 21.0659L35.6251 19.0424Z" fill="#8E8F99"/>
<path d="M34.6947 18.4784L31.3188 15.5941C31.2543 18.8826 30.16 22.0963 28.1499 24.9013C26.1397 27.7063 23.287 30 19.8882 31.5442H19.9047C20.6622 31.544 21.4189 31.5054 22.171 31.4287C25.3474 30.321 28.1534 28.5587 30.3386 26.299C32.5239 24.0393 34.0204 21.3525 34.6947 18.4784Z" fill="#8E8F99"/>
<path d="M16.2861 3.4457L12.2587 0C8.65843 1.18869 5.56201 3.27837 3.37474 5.99553C1.18746 8.7127 0.0112346 11.9308 0 15.2285H0C0.0134937 18.8725 1.44899 22.4085 4.0793 25.2769C6.7096 28.1454 10.3845 30.1824 14.5222 31.0656C18.216 27.2205 20.3786 22.4693 20.6958 17.5023C21.013 12.5353 19.4683 7.6113 16.2861 3.4457Z" fill="#8E8F99"/>
<path d="M43.9999 17.9478C43.9853 13.6244 41.9687 9.48173 38.3907 6.42466C34.8126 3.36758 29.9639 1.64463 24.9038 1.63218C22.5656 1.63011 20.2472 1.99876 18.0664 2.71942L42.7246 23.7872C43.5689 21.9249 44.0013 19.9449 43.9999 17.9478Z" fill="#8E8F99"/>
</svg>
