<svg width="60" height="64" viewBox="0 0 60 64" fill="none" xmlns="http://www.w3.org/2000/svg">
<path d="M59.5462 44.1952L42.6598 27.1851L44.5339 17.9541C45.0175 18.1429 45.5316 18.2416 46.0507 18.2453H46.0635C48.448 18.2735 50.4039 16.3633 50.4322 13.9788C50.4604 11.5943 48.5502 9.6384 46.1656 9.61013C43.7811 9.582 41.8252 11.4921 41.797 13.8767C41.791 14.3869 41.8754 14.8941 42.0464 15.3749L32.1264 16.5856L15.9451 0.32C15.7466 0.117467 15.4756 0.00226667 15.192 0C14.912 0.00146667 14.6439 0.112933 14.4454 0.3104L11.4203 3.3184C11.0039 3.73493 11.0039 4.41013 11.4203 4.82667L13.048 6.47787C6.74189 18.0737 8.79016 32.4335 18.087 41.8037C18.1723 41.8853 18.2712 41.9513 18.3792 41.9989C18.312 42.3599 18.277 42.7261 18.2747 43.0933V55.4667H5.47469C2.53069 55.4701 0.144824 57.856 0.141357 60.8V62.9333C0.141357 63.5224 0.618957 64 1.20802 64H50.2747C50.8638 64 51.3414 63.5224 51.3414 62.9333V60.8C51.3379 57.856 48.952 55.4701 46.008 55.4667H33.208V49.9829C35.2132 50.4035 37.2563 50.6179 39.3051 50.6229C44.2214 50.6176 49.0594 49.392 53.3851 47.056L55.0214 48.7019C55.2199 48.9044 55.4908 49.0196 55.7744 49.0219C56.0544 49.0204 56.3226 48.9089 56.5211 48.7115L59.5462 45.7035C59.9626 45.2869 59.9626 44.6117 59.5462 44.1952ZM44.5595 12.4661C45.3948 11.6352 46.7456 11.6389 47.5764 12.4743C48.4074 13.3096 48.4036 14.6604 47.5683 15.4912C47.1684 15.8889 46.6274 16.1121 46.0634 16.112H46.057C44.8788 16.1059 43.9286 15.1459 43.9347 13.9676C43.9376 13.4036 44.1638 12.8639 44.5636 12.4661H44.5595ZM42.0486 19.4752L40.8518 25.3664L38.5008 23.0016L42.0486 19.4752ZM40.8368 17.6715L36.9968 21.4891L34.0262 18.5024L40.8368 17.6715ZM46.008 57.6C47.7754 57.6 49.208 59.0327 49.208 60.8V61.8667H2.27469V60.8C2.27469 59.0327 3.70736 57.6 5.47469 57.6H46.008ZM31.0747 53.3333V55.4667H20.408V53.3333H31.0747ZM20.408 51.2V43.0933C20.408 40.5056 22.8006 38.4 25.7414 38.4C28.6822 38.4 31.0747 40.5056 31.0747 43.0933V51.2H20.408ZM33.208 47.808V43.0933C33.208 39.3291 29.8587 36.2667 25.7414 36.2667C23.0792 36.2259 20.5899 37.5809 19.1792 39.8389C11.0638 31.2913 9.23629 18.5485 14.622 8.06467L51.8256 45.4816C46.0808 48.404 39.4954 49.2268 33.208 47.808ZM55.7862 46.4405L54.2832 44.9291L15.1814 5.59147L13.672 4.07893L15.1814 2.57493L31.0512 18.5344C31.0587 18.5344 31.063 18.5483 31.0704 18.5536L57.2998 44.9365L55.7862 46.4405Z" fill="#2E2F42"/>
<path d="M25.751 40.5333H25.7414C23.9741 40.5307 22.5393 41.9612 22.5366 43.7285C22.534 45.4959 23.9645 46.9307 25.7318 46.9333H25.7414C27.5088 46.936 28.9436 45.5055 28.9462 43.7381C28.9489 41.9708 27.5184 40.536 25.751 40.5333ZM26.4977 44.4896C26.2969 44.6893 26.0248 44.8011 25.7414 44.8C25.1524 44.7969 24.6773 44.3169 24.6804 43.7279C24.6818 43.4459 24.7949 43.176 24.9948 42.9771C25.1933 42.7796 25.4614 42.6681 25.7414 42.6667C26.3305 42.6697 26.8056 43.1497 26.8025 43.7388C26.801 44.0208 26.688 44.2907 26.4881 44.4896H26.4977Z" fill="#4D5AE5"/>
</svg>
